# xmcd
#
# Track frame offsets: 
#        150
#        14452
#        28773
#        43664
#        57919
#        71057
#        85601
#        100915
#        114151
#        127918
#        143121
#        158339
#        172303
#        184833
#        198900
#        213937
#        228580
#        244491
#
# Disc length: 3454 seconds
#
# Revision: 1
# Processed by: cddbd v1.5.2PL0 Copyright (c) Steve Scherf et al.
# Submitted via: ExactAudioCopy v0.95b2
#
DISCID=f60d7c12
DTITLE=Clara Smith - The Essential Clara Smith Disc 1
DYEAR=1900
DGENRE=Blues
TTITLE0=Sobbin' Sister Blues
TTITLE1=Good Looking Papa Blues
TTITLE2=I Never Miss the Sunshine
TTITLE3=Percolatin' Blues
TTITLE4=I'm Going Back to My Used To Be (with Bessie Smith)
TTITLE5=You're Getting Old on Your Job (with Lonnie Johnson)
TTITLE6=Texas Moaner Blues
TTITLE7=San Francisco Blues
TTITLE8=Tired of the Way You Do
TTITLE9=The L. and N. Blues
TTITLE10=Shipwrecked Blues
TTITLE11=Steamboat Man Blues
TTITLE12=Oh Mister Mitchell
TTITLE13=Where Is My Man?
TTITLE14=You Had Too Much (with Lonnie Johnson)
TTITLE15=Unemployed Papa - Charity Working Mama
TTITLE16=My Man Blues (with Bessie Smith)
TTITLE17=My Brand New Papa
EXTD=
EXTT0=
EXTT1=
EXTT2=
EXTT3=
EXTT4=
EXTT5=
EXTT6=
EXTT7=
EXTT8=
EXTT9=
EXTT10=
EXTT11=
EXTT12=
EXTT13=
EXTT14=
EXTT15=
EXTT16=
EXTT17=
PLAYORDER=
